<mxfile host="app.diagrams.net" modified="2021-08-22T18:44:29.334Z" agent="5.0 (Windows NT 10.0; Win64; x64) AppleWebKit/537.36 (KHTML, like Gecko) Chrome/92.0.4515.159 Safari/537.36" etag="BrrN4tU0VHgVDIBTyaK8" version="14.9.8" type="github">
  <diagram id="5VRV5dUMMalnW_a9mUKL" name="Page-1">
    <mxGraphModel dx="1580" dy="882" grid="1" gridSize="10" guides="1" tooltips="1" connect="1" arrows="1" fold="1" page="1" pageScale="1" pageWidth="827" pageHeight="1169" math="0" shadow="0">
      <root>
        <mxCell id="0" />
        <mxCell id="1" parent="0" />
        <mxCell id="qvQRw2Livu3W_uPXHkUj-1" value="" style="rounded=0;whiteSpace=wrap;html=1;" parent="1" vertex="1">
          <mxGeometry x="300" y="50" width="620" height="850" as="geometry" />
        </mxCell>
        <mxCell id="qvQRw2Livu3W_uPXHkUj-2" value="Khách hàng" style="shape=umlActor;verticalLabelPosition=bottom;verticalAlign=top;html=1;outlineConnect=0;" parent="1" vertex="1">
          <mxGeometry x="180" y="445" width="30" height="60" as="geometry" />
        </mxCell>
        <mxCell id="qvQRw2Livu3W_uPXHkUj-3" value="" style="endArrow=classic;html=1;entryX=0;entryY=0.5;entryDx=0;entryDy=0;" parent="1" target="qvQRw2Livu3W_uPXHkUj-4" edge="1">
          <mxGeometry width="50" height="50" relative="1" as="geometry">
            <mxPoint x="240" y="480" as="sourcePoint" />
            <mxPoint x="390" y="150" as="targetPoint" />
          </mxGeometry>
        </mxCell>
        <mxCell id="qvQRw2Livu3W_uPXHkUj-4" value="Đăng ký" style="ellipse;whiteSpace=wrap;html=1;" parent="1" vertex="1">
          <mxGeometry x="330" y="80" width="100" height="70" as="geometry" />
        </mxCell>
        <mxCell id="qvQRw2Livu3W_uPXHkUj-5" value="Đăng nhập" style="ellipse;whiteSpace=wrap;html=1;" parent="1" vertex="1">
          <mxGeometry x="330" y="160" width="100" height="70" as="geometry" />
        </mxCell>
        <mxCell id="qvQRw2Livu3W_uPXHkUj-6" value="" style="endArrow=classic;html=1;entryX=0;entryY=0.5;entryDx=0;entryDy=0;" parent="1" target="qvQRw2Livu3W_uPXHkUj-5" edge="1">
          <mxGeometry width="50" height="50" relative="1" as="geometry">
            <mxPoint x="240" y="480" as="sourcePoint" />
            <mxPoint x="310" y="210" as="targetPoint" />
          </mxGeometry>
        </mxCell>
        <mxCell id="qvQRw2Livu3W_uPXHkUj-7" value="Xem Trang &lt;br&gt;chủ đề" style="ellipse;whiteSpace=wrap;html=1;" parent="1" vertex="1">
          <mxGeometry x="330" y="400" width="100" height="70" as="geometry" />
        </mxCell>
        <mxCell id="qvQRw2Livu3W_uPXHkUj-8" value="Xem Trang &lt;br&gt;tin tức" style="ellipse;whiteSpace=wrap;html=1;" parent="1" vertex="1">
          <mxGeometry x="330" y="480" width="100" height="70" as="geometry" />
        </mxCell>
        <mxCell id="qvQRw2Livu3W_uPXHkUj-9" value="Xem Trang Index" style="ellipse;whiteSpace=wrap;html=1;" parent="1" vertex="1">
          <mxGeometry x="330" y="320" width="100" height="70" as="geometry" />
        </mxCell>
        <mxCell id="qvQRw2Livu3W_uPXHkUj-10" value="Xem Trang khuyến mãi" style="ellipse;whiteSpace=wrap;html=1;" parent="1" vertex="1">
          <mxGeometry x="330" y="560" width="100" height="70" as="geometry" />
        </mxCell>
        <mxCell id="qvQRw2Livu3W_uPXHkUj-11" value="Xem Trang Blog của khách hàng" style="ellipse;whiteSpace=wrap;html=1;" parent="1" vertex="1">
          <mxGeometry x="330" y="640" width="100" height="70" as="geometry" />
        </mxCell>
        <mxCell id="qvQRw2Livu3W_uPXHkUj-12" value="Xem Trang giới thiệu" style="ellipse;whiteSpace=wrap;html=1;" parent="1" vertex="1">
          <mxGeometry x="330" y="720" width="100" height="70" as="geometry" />
        </mxCell>
        <mxCell id="qvQRw2Livu3W_uPXHkUj-13" value="Xem Trang &lt;br&gt;liên hệ" style="ellipse;whiteSpace=wrap;html=1;" parent="1" vertex="1">
          <mxGeometry x="330" y="800" width="100" height="70" as="geometry" />
        </mxCell>
        <mxCell id="qvQRw2Livu3W_uPXHkUj-14" value="Tìm kiếm" style="ellipse;whiteSpace=wrap;html=1;" parent="1" vertex="1">
          <mxGeometry x="330" y="240" width="100" height="70" as="geometry" />
        </mxCell>
        <mxCell id="qvQRw2Livu3W_uPXHkUj-15" value="" style="endArrow=classic;html=1;entryX=0;entryY=0.5;entryDx=0;entryDy=0;" parent="1" target="qvQRw2Livu3W_uPXHkUj-14" edge="1">
          <mxGeometry width="50" height="50" relative="1" as="geometry">
            <mxPoint x="240" y="480" as="sourcePoint" />
            <mxPoint x="270" y="390" as="targetPoint" />
          </mxGeometry>
        </mxCell>
        <mxCell id="qvQRw2Livu3W_uPXHkUj-16" value="" style="endArrow=classic;html=1;entryX=0;entryY=0.5;entryDx=0;entryDy=0;" parent="1" target="qvQRw2Livu3W_uPXHkUj-9" edge="1">
          <mxGeometry width="50" height="50" relative="1" as="geometry">
            <mxPoint x="240" y="480" as="sourcePoint" />
            <mxPoint x="210" y="455" as="targetPoint" />
          </mxGeometry>
        </mxCell>
        <mxCell id="qvQRw2Livu3W_uPXHkUj-17" value="" style="endArrow=classic;html=1;entryX=0;entryY=0.5;entryDx=0;entryDy=0;" parent="1" target="qvQRw2Livu3W_uPXHkUj-7" edge="1">
          <mxGeometry width="50" height="50" relative="1" as="geometry">
            <mxPoint x="240" y="480" as="sourcePoint" />
            <mxPoint x="190" y="470" as="targetPoint" />
          </mxGeometry>
        </mxCell>
        <mxCell id="qvQRw2Livu3W_uPXHkUj-18" value="" style="endArrow=classic;html=1;entryX=0;entryY=0.5;entryDx=0;entryDy=0;" parent="1" target="qvQRw2Livu3W_uPXHkUj-8" edge="1">
          <mxGeometry width="50" height="50" relative="1" as="geometry">
            <mxPoint x="240" y="480" as="sourcePoint" />
            <mxPoint x="200" y="510" as="targetPoint" />
          </mxGeometry>
        </mxCell>
        <mxCell id="qvQRw2Livu3W_uPXHkUj-19" value="" style="endArrow=classic;html=1;entryX=0;entryY=0.5;entryDx=0;entryDy=0;" parent="1" target="qvQRw2Livu3W_uPXHkUj-10" edge="1">
          <mxGeometry width="50" height="50" relative="1" as="geometry">
            <mxPoint x="240" y="480" as="sourcePoint" />
            <mxPoint x="210" y="560" as="targetPoint" />
          </mxGeometry>
        </mxCell>
        <mxCell id="qvQRw2Livu3W_uPXHkUj-20" value="" style="endArrow=classic;html=1;entryX=0;entryY=0.5;entryDx=0;entryDy=0;" parent="1" target="qvQRw2Livu3W_uPXHkUj-11" edge="1">
          <mxGeometry width="50" height="50" relative="1" as="geometry">
            <mxPoint x="240" y="480" as="sourcePoint" />
            <mxPoint x="180" y="585" as="targetPoint" />
          </mxGeometry>
        </mxCell>
        <mxCell id="qvQRw2Livu3W_uPXHkUj-21" value="" style="endArrow=classic;html=1;entryX=0;entryY=0.5;entryDx=0;entryDy=0;" parent="1" target="qvQRw2Livu3W_uPXHkUj-12" edge="1">
          <mxGeometry width="50" height="50" relative="1" as="geometry">
            <mxPoint x="240" y="480" as="sourcePoint" />
            <mxPoint x="180" y="620" as="targetPoint" />
          </mxGeometry>
        </mxCell>
        <mxCell id="qvQRw2Livu3W_uPXHkUj-22" value="" style="endArrow=classic;html=1;entryX=0;entryY=0.5;entryDx=0;entryDy=0;" parent="1" target="qvQRw2Livu3W_uPXHkUj-13" edge="1">
          <mxGeometry width="50" height="50" relative="1" as="geometry">
            <mxPoint x="240" y="480" as="sourcePoint" />
            <mxPoint x="180" y="750" as="targetPoint" />
          </mxGeometry>
        </mxCell>
        <mxCell id="qvQRw2Livu3W_uPXHkUj-23" value="Thêm bình luận" style="ellipse;whiteSpace=wrap;html=1;" parent="1" vertex="1">
          <mxGeometry x="510" y="60" width="100" height="50" as="geometry" />
        </mxCell>
        <mxCell id="qvQRw2Livu3W_uPXHkUj-24" value="Include" style="endArrow=open;endSize=12;dashed=1;html=1;entryX=1;entryY=0;entryDx=0;entryDy=0;exitX=0;exitY=0.5;exitDx=0;exitDy=0;" parent="1" source="qvQRw2Livu3W_uPXHkUj-23" target="qvQRw2Livu3W_uPXHkUj-5" edge="1">
          <mxGeometry x="-0.0625" width="160" relative="1" as="geometry">
            <mxPoint x="465" y="274.5" as="sourcePoint" />
            <mxPoint x="625" y="274.5" as="targetPoint" />
            <mxPoint as="offset" />
          </mxGeometry>
        </mxCell>
        <mxCell id="qvQRw2Livu3W_uPXHkUj-25" value="Đăng tải Blogs" style="ellipse;whiteSpace=wrap;html=1;" parent="1" vertex="1">
          <mxGeometry x="510" y="120" width="100" height="50" as="geometry" />
        </mxCell>
        <mxCell id="qvQRw2Livu3W_uPXHkUj-26" value="Include" style="endArrow=open;endSize=12;dashed=1;html=1;entryX=1;entryY=0.5;entryDx=0;entryDy=0;exitX=0;exitY=0.5;exitDx=0;exitDy=0;" parent="1" source="qvQRw2Livu3W_uPXHkUj-25" target="qvQRw2Livu3W_uPXHkUj-5" edge="1">
          <mxGeometry x="-0.0625" width="160" relative="1" as="geometry">
            <mxPoint x="550" y="270" as="sourcePoint" />
            <mxPoint x="470" y="320" as="targetPoint" />
            <mxPoint as="offset" />
          </mxGeometry>
        </mxCell>
        <mxCell id="qvQRw2Livu3W_uPXHkUj-27" value="Include" style="endArrow=open;endSize=12;dashed=1;html=1;exitX=0;exitY=0.5;exitDx=0;exitDy=0;entryX=0.96;entryY=0.717;entryDx=0;entryDy=0;entryPerimeter=0;" parent="1" source="qvQRw2Livu3W_uPXHkUj-28" target="qvQRw2Livu3W_uPXHkUj-5" edge="1">
          <mxGeometry x="-0.0625" width="160" relative="1" as="geometry">
            <mxPoint x="500" y="260" as="sourcePoint" />
            <mxPoint x="427" y="210" as="targetPoint" />
            <mxPoint as="offset" />
          </mxGeometry>
        </mxCell>
        <mxCell id="qvQRw2Livu3W_uPXHkUj-28" value="Giao tiếp với Admin" style="ellipse;whiteSpace=wrap;html=1;" parent="1" vertex="1">
          <mxGeometry x="510" y="180" width="100" height="50" as="geometry" />
        </mxCell>
        <mxCell id="qvQRw2Livu3W_uPXHkUj-29" value="Phản hồi với Công ty chủ quản" style="ellipse;whiteSpace=wrap;html=1;" parent="1" vertex="1">
          <mxGeometry x="510" y="240" width="100" height="60" as="geometry" />
        </mxCell>
        <mxCell id="qvQRw2Livu3W_uPXHkUj-30" value="Include" style="endArrow=open;endSize=12;dashed=1;html=1;exitX=0;exitY=0.5;exitDx=0;exitDy=0;" parent="1" source="qvQRw2Livu3W_uPXHkUj-29" target="qvQRw2Livu3W_uPXHkUj-5" edge="1">
          <mxGeometry x="-0.0625" width="160" relative="1" as="geometry">
            <mxPoint x="514" y="297.4" as="sourcePoint" />
            <mxPoint x="430" y="252.59000000000006" as="targetPoint" />
            <mxPoint as="offset" />
          </mxGeometry>
        </mxCell>
        <mxCell id="qvQRw2Livu3W_uPXHkUj-31" value="Admin" style="shape=umlActor;verticalLabelPosition=bottom;verticalAlign=top;html=1;outlineConnect=0;" parent="1" vertex="1">
          <mxGeometry x="970" y="275" width="30" height="60" as="geometry" />
        </mxCell>
        <mxCell id="qvQRw2Livu3W_uPXHkUj-32" value="Đăng nhập" style="ellipse;whiteSpace=wrap;html=1;" parent="1" vertex="1">
          <mxGeometry x="790" y="270" width="100" height="70" as="geometry" />
        </mxCell>
        <mxCell id="qvQRw2Livu3W_uPXHkUj-33" value="" style="endArrow=classic;html=1;" parent="1" target="qvQRw2Livu3W_uPXHkUj-32" edge="1">
          <mxGeometry width="50" height="50" relative="1" as="geometry">
            <mxPoint x="960" y="305" as="sourcePoint" />
            <mxPoint x="620" y="395" as="targetPoint" />
          </mxGeometry>
        </mxCell>
        <mxCell id="qvQRw2Livu3W_uPXHkUj-34" value="Phản hồi bình luận của khách hàng" style="ellipse;whiteSpace=wrap;html=1;" parent="1" vertex="1">
          <mxGeometry x="630" y="80" width="100" height="70" as="geometry" />
        </mxCell>
        <mxCell id="qvQRw2Livu3W_uPXHkUj-35" value="Include" style="endArrow=open;endSize=12;dashed=1;html=1;entryX=0.5;entryY=0;entryDx=0;entryDy=0;exitX=1;exitY=0.5;exitDx=0;exitDy=0;" parent="1" source="qvQRw2Livu3W_uPXHkUj-34" target="qvQRw2Livu3W_uPXHkUj-32" edge="1">
          <mxGeometry x="-0.0415" y="-2" width="160" relative="1" as="geometry">
            <mxPoint x="810" y="430" as="sourcePoint" />
            <mxPoint x="970" y="430" as="targetPoint" />
            <mxPoint as="offset" />
          </mxGeometry>
        </mxCell>
        <mxCell id="qvQRw2Livu3W_uPXHkUj-36" value="Giao tiếp với khách hàng" style="ellipse;whiteSpace=wrap;html=1;" parent="1" vertex="1">
          <mxGeometry x="630" y="160" width="100" height="70" as="geometry" />
        </mxCell>
        <mxCell id="qvQRw2Livu3W_uPXHkUj-37" value="Include" style="endArrow=open;endSize=12;dashed=1;html=1;exitX=0.968;exitY=0.706;exitDx=0;exitDy=0;entryX=0;entryY=0;entryDx=0;entryDy=0;exitPerimeter=0;" parent="1" source="qvQRw2Livu3W_uPXHkUj-36" target="qvQRw2Livu3W_uPXHkUj-32" edge="1">
          <mxGeometry x="-0.0415" y="-2" width="160" relative="1" as="geometry">
            <mxPoint x="850" y="460" as="sourcePoint" />
            <mxPoint x="790" y="395" as="targetPoint" />
            <mxPoint as="offset" />
          </mxGeometry>
        </mxCell>
        <mxCell id="qvQRw2Livu3W_uPXHkUj-38" value="Điều chỉnh &lt;br&gt;thông tin các Tour trên hệ thống" style="ellipse;whiteSpace=wrap;html=1;" parent="1" vertex="1">
          <mxGeometry x="630" y="240" width="100" height="70" as="geometry" />
        </mxCell>
        <mxCell id="qvQRw2Livu3W_uPXHkUj-39" value="Include" style="endArrow=open;endSize=12;dashed=1;html=1;entryX=0;entryY=0.5;entryDx=0;entryDy=0;exitX=1;exitY=0.5;exitDx=0;exitDy=0;" parent="1" source="qvQRw2Livu3W_uPXHkUj-38" target="qvQRw2Livu3W_uPXHkUj-32" edge="1">
          <mxGeometry x="-0.0415" y="-2" width="160" relative="1" as="geometry">
            <mxPoint x="730" y="280" as="sourcePoint" />
            <mxPoint x="784" y="487.99" as="targetPoint" />
            <mxPoint as="offset" />
          </mxGeometry>
        </mxCell>
        <mxCell id="qvQRw2Livu3W_uPXHkUj-40" value="Cập nhật thêm các Tour mới" style="ellipse;whiteSpace=wrap;html=1;" parent="1" vertex="1">
          <mxGeometry x="630" y="320" width="100" height="70" as="geometry" />
        </mxCell>
        <mxCell id="qvQRw2Livu3W_uPXHkUj-41" value="Include" style="endArrow=open;endSize=12;dashed=1;html=1;exitX=1;exitY=0.5;exitDx=0;exitDy=0;entryX=0;entryY=0.5;entryDx=0;entryDy=0;" parent="1" source="qvQRw2Livu3W_uPXHkUj-40" target="qvQRw2Livu3W_uPXHkUj-32" edge="1">
          <mxGeometry x="-0.0415" y="-2" width="160" relative="1" as="geometry">
            <mxPoint x="840" y="475" as="sourcePoint" />
            <mxPoint x="760" y="500" as="targetPoint" />
            <mxPoint as="offset" />
          </mxGeometry>
        </mxCell>
        <mxCell id="qvQRw2Livu3W_uPXHkUj-42" value="Thêm các bài &lt;br&gt;báo về du lịch" style="ellipse;whiteSpace=wrap;html=1;" parent="1" vertex="1">
          <mxGeometry x="630" y="400" width="100" height="70" as="geometry" />
        </mxCell>
        <mxCell id="qvQRw2Livu3W_uPXHkUj-43" value="Include" style="endArrow=open;endSize=12;dashed=1;html=1;exitX=0.92;exitY=0.214;exitDx=0;exitDy=0;entryX=0;entryY=1;entryDx=0;entryDy=0;exitPerimeter=0;" parent="1" source="qvQRw2Livu3W_uPXHkUj-42" target="qvQRw2Livu3W_uPXHkUj-32" edge="1">
          <mxGeometry x="-0.0415" y="-2" width="160" relative="1" as="geometry">
            <mxPoint x="871.21" y="536.9" as="sourcePoint" />
            <mxPoint x="784.0014404596764" y="500.0040709637092" as="targetPoint" />
            <mxPoint as="offset" />
          </mxGeometry>
        </mxCell>
        <mxCell id="qvQRw2Livu3W_uPXHkUj-44" value="Chỉnh sửa &lt;br&gt;các bài báo về &lt;br&gt;du lịch" style="ellipse;whiteSpace=wrap;html=1;" parent="1" vertex="1">
          <mxGeometry x="630" y="480" width="100" height="70" as="geometry" />
        </mxCell>
        <mxCell id="qvQRw2Livu3W_uPXHkUj-45" value="Include" style="endArrow=open;endSize=12;dashed=1;html=1;exitX=1;exitY=0.5;exitDx=0;exitDy=0;entryX=0.5;entryY=1;entryDx=0;entryDy=0;" parent="1" source="qvQRw2Livu3W_uPXHkUj-44" target="qvQRw2Livu3W_uPXHkUj-32" edge="1">
          <mxGeometry x="-0.0415" y="-2" width="160" relative="1" as="geometry">
            <mxPoint x="872.05" y="615.98" as="sourcePoint" />
            <mxPoint x="769.9972641537884" y="510.00215892893425" as="targetPoint" />
            <mxPoint as="offset" />
          </mxGeometry>
        </mxCell>
        <mxCell id="qvQRw2Livu3W_uPXHkUj-46" value="Use Case" style="text;align=center;fontStyle=1;verticalAlign=middle;spacingLeft=3;spacingRight=3;strokeColor=none;rotatable=0;points=[[0,0.5],[1,0.5]];portConstraint=eastwest;" parent="1" vertex="1">
          <mxGeometry x="570" y="20" width="80" height="26" as="geometry" />
        </mxCell>
        <mxCell id="HXAZ-TTcpG64hrT-Jown-2" value="Extends" style="endArrow=block;endSize=16;endFill=0;html=1;" edge="1" parent="1">
          <mxGeometry width="160" relative="1" as="geometry">
            <mxPoint x="430" y="434.5" as="sourcePoint" />
            <mxPoint x="500" y="435" as="targetPoint" />
          </mxGeometry>
        </mxCell>
        <mxCell id="HXAZ-TTcpG64hrT-Jown-3" value="Lọc theo chủ đề" style="ellipse;whiteSpace=wrap;html=1;" vertex="1" parent="1">
          <mxGeometry x="500" y="410" width="100" height="50" as="geometry" />
        </mxCell>
        <mxCell id="HXAZ-TTcpG64hrT-Jown-4" value="Extends" style="endArrow=block;endSize=16;endFill=0;html=1;" edge="1" parent="1">
          <mxGeometry width="160" relative="1" as="geometry">
            <mxPoint x="430" y="514.5" as="sourcePoint" />
            <mxPoint x="500" y="515" as="targetPoint" />
          </mxGeometry>
        </mxCell>
        <mxCell id="HXAZ-TTcpG64hrT-Jown-5" value="Xem tin tức" style="ellipse;whiteSpace=wrap;html=1;" vertex="1" parent="1">
          <mxGeometry x="500" y="490" width="100" height="50" as="geometry" />
        </mxCell>
        <mxCell id="HXAZ-TTcpG64hrT-Jown-7" value="Extends" style="endArrow=block;endSize=16;endFill=0;html=1;" edge="1" parent="1">
          <mxGeometry width="160" relative="1" as="geometry">
            <mxPoint x="430" y="680" as="sourcePoint" />
            <mxPoint x="500" y="680.5" as="targetPoint" />
          </mxGeometry>
        </mxCell>
        <mxCell id="HXAZ-TTcpG64hrT-Jown-8" value="Extends" style="endArrow=block;endSize=16;endFill=0;html=1;" edge="1" parent="1">
          <mxGeometry width="160" relative="1" as="geometry">
            <mxPoint x="430" y="594.5" as="sourcePoint" />
            <mxPoint x="500" y="595" as="targetPoint" />
          </mxGeometry>
        </mxCell>
        <mxCell id="HXAZ-TTcpG64hrT-Jown-11" value="Xem nội dung&amp;nbsp;&lt;br&gt;Blogs" style="ellipse;whiteSpace=wrap;html=1;" vertex="1" parent="1">
          <mxGeometry x="500" y="650" width="100" height="60" as="geometry" />
        </mxCell>
        <mxCell id="HXAZ-TTcpG64hrT-Jown-12" value="Xem chi tiết Tour" style="ellipse;whiteSpace=wrap;html=1;" vertex="1" parent="1">
          <mxGeometry x="500" y="570" width="100" height="50" as="geometry" />
        </mxCell>
        <mxCell id="HXAZ-TTcpG64hrT-Jown-14" value="Extends" style="endArrow=block;endSize=16;endFill=0;html=1;" edge="1" parent="1">
          <mxGeometry width="160" relative="1" as="geometry">
            <mxPoint x="430" y="834.4700000000003" as="sourcePoint" />
            <mxPoint x="500" y="834.97" as="targetPoint" />
          </mxGeometry>
        </mxCell>
        <mxCell id="HXAZ-TTcpG64hrT-Jown-15" value="Phản hồi bằng Email" style="ellipse;whiteSpace=wrap;html=1;" vertex="1" parent="1">
          <mxGeometry x="500" y="805" width="100" height="60" as="geometry" />
        </mxCell>
        <mxCell id="HXAZ-TTcpG64hrT-Jown-16" value="Lọc theo chủ đề" style="ellipse;whiteSpace=wrap;html=1;" vertex="1" parent="1">
          <mxGeometry x="500" y="410" width="100" height="50" as="geometry" />
        </mxCell>
        <mxCell id="HXAZ-TTcpG64hrT-Jown-17" value="Xem tin tức" style="ellipse;whiteSpace=wrap;html=1;" vertex="1" parent="1">
          <mxGeometry x="500" y="490" width="100" height="50" as="geometry" />
        </mxCell>
        <mxCell id="HXAZ-TTcpG64hrT-Jown-18" value="Xem chi tiết Tour" style="ellipse;whiteSpace=wrap;html=1;" vertex="1" parent="1">
          <mxGeometry x="500" y="570" width="100" height="50" as="geometry" />
        </mxCell>
        <mxCell id="HXAZ-TTcpG64hrT-Jown-19" value="Extends" style="endArrow=block;endSize=16;endFill=0;html=1;" edge="1" parent="1">
          <mxGeometry width="160" relative="1" as="geometry">
            <mxPoint x="430" y="434.4400000000002" as="sourcePoint" />
            <mxPoint x="500" y="434.94" as="targetPoint" />
          </mxGeometry>
        </mxCell>
        <mxCell id="HXAZ-TTcpG64hrT-Jown-20" value="Extends" style="endArrow=block;endSize=16;endFill=0;html=1;" edge="1" parent="1">
          <mxGeometry width="160" relative="1" as="geometry">
            <mxPoint x="430" y="514.4400000000003" as="sourcePoint" />
            <mxPoint x="500" y="514.94" as="targetPoint" />
          </mxGeometry>
        </mxCell>
        <mxCell id="HXAZ-TTcpG64hrT-Jown-21" value="Extends" style="endArrow=block;endSize=16;endFill=0;html=1;" edge="1" parent="1">
          <mxGeometry width="160" relative="1" as="geometry">
            <mxPoint x="430" y="594.4400000000003" as="sourcePoint" />
            <mxPoint x="500" y="594.94" as="targetPoint" />
          </mxGeometry>
        </mxCell>
      </root>
    </mxGraphModel>
  </diagram>
</mxfile>
